<svg xmlns="http://www.w3.org/2000/svg" width="800" height="560"><g><title>background</title><rect id="canvas_background" width="802" height="562" x="-1" y="-1" fill="#fff"/><g id="canvasGrid" width="100%" height="100%" x="0" y="0" display="none"><rect width="100%" height="100%" x="0" y="0" fill="url(#gridpattern)" stroke-width="0"/></g></g><g><title>Layer 1</title><rect id="svg_44" width="117" height="26" x="386.043" y="460.383" fill="#9b59b6" stroke="#000" stroke-opacity="null" stroke-width="0"/><rect id="svg_40" width="117" height="26" x="195.98" y="460.383" fill="#f39c12" stroke="#000" stroke-opacity="null" stroke-width="0"/><rect id="svg_11" width="117" height="26" x="205.983" y="80.257" fill="#333" stroke="#000" stroke-opacity="null" stroke-width="0"/><text id="svg_1" x="31.507" y="47.007" fill="#e74c3c" stroke="#000" stroke-width="0" font-family="'Courier New', Courier, monospace" font-size="18" font-weight="bold" text-anchor="left" xml:space="preserve">wc -l *.pdb</text><rect id="svg_2" width="168" height="44" x="21.5" y="71.007" fill="#e74c3c" stroke="#000" stroke-width="0" rx="6"/><text id="svg_3" x="44.5" y="97.007" fill="#fff" stroke="#000" stroke-width="0" font-family="'Courier New', Courier, monospace" font-size="18" font-weight="bold" text-anchor="left" xml:space="preserve">wc -l *.pdb</text><rect id="svg_5" width="152" height="125" x="251.47" y="34.007" fill="#333" stroke="#000" stroke-opacity="null" stroke-width="0" rx="6"/><rect id="svg_6" width="75" height="53" x="287.47" y="52.007" fill="#000" fill-opacity="0" stroke="#fff" stroke-width="2" rx="6"/><text id="svg_7" x="294.47" y="71.007" fill="#fff" stroke="#000" stroke-width="0" font-family="'Courier New', Courier, monospace" font-size="16" font-weight="bold" text-anchor="left" xml:space="preserve">$</text><text id="svg_8" x="273.47" y="138.007" fill="#fff" stroke="#000" stroke-width="0" font-family="Helvetica, Arial, sans-serif" font-size="16" font-weight="normal" text-anchor="left" xml:space="preserve">Output in Shell</text><path id="svg_9" fill="#e74c3c" stroke="#000" stroke-opacity="null" stroke-width="0" d="m188.739929,80.246132l24,0l19.999954,13.020409l-19.999954,13.020416l-24,0l0,-26.040825z"/><text id="svg_12" x="190.237" y="96.756" fill="#fff" stroke="#000" stroke-width="0" font-family="Helvetica, Arial, sans-serif" font-size="10" font-weight="normal" text-anchor="left" xml:space="preserve">OUT</text><rect id="svg_13" width="117" height="26" x="205.983" y="278.323" fill="#3498db" stroke="#000" stroke-opacity="null" stroke-width="0"/><rect id="svg_15" width="168" height="44" x="21.5" y="269.072" fill="#e74c3c" stroke="#000" stroke-width="0" rx="6"/><text id="svg_16" x="44.5" y="295.072" fill="#fff" stroke="#000" stroke-width="0" font-family="'Courier New', Courier, monospace" font-size="18" font-weight="bold" text-anchor="left" xml:space="preserve">wc -l *.pdb</text><rect id="svg_17" width="152" height="134.003" x="251.47" y="232.072" fill="#3498db" stroke="#000" stroke-opacity="null" stroke-width="0" rx="6"/><text id="svg_20" x="278.472" y="346.076" fill="#fff" stroke="#000" stroke-width="0" font-family="Helvetica, Arial, sans-serif" font-size="16" font-weight="normal" text-anchor="left" xml:space="preserve">Output in File</text><path id="svg_21" fill="#e74c3c" stroke="#000" stroke-opacity="null" stroke-width="0" d="m188.739929,278.311859l24,0l19.999954,13.020447l-19.999954,13.020447l-24,0l0,-26.040894z"/><text id="svg_22" x="190.237" y="294.822" fill="#fff" stroke="#000" stroke-width="0" font-family="Helvetica, Arial, sans-serif" font-size="10" font-weight="normal" text-anchor="left" xml:space="preserve">OUT</text><text id="svg_24" x="31.507" y="425.133" fill="#e74c3c" stroke="#000" stroke-width="0" font-family="'Courier New', Courier, monospace" font-size="18" font-weight="bold" text-anchor="left" xml:space="preserve">wc -l *.pdb</text><rect id="svg_25" width="168" height="44" x="21.5" y="451.133" fill="#e74c3c" stroke="#000" stroke-width="0" rx="6"/><text id="svg_26" x="44.5" y="477.133" fill="#fff" stroke="#000" stroke-width="0" font-family="'Courier New', Courier, monospace" font-size="18" font-weight="bold" text-anchor="left" xml:space="preserve">wc -l *.pdb</text><path id="svg_31" fill="#e74c3c" stroke="#000" stroke-opacity="null" stroke-width="0" d="m188.739929,460.372406l24.000031,0l19.999924,13.020447l-19.999924,13.020447l-24.000031,0l0,-26.040894z"/><text id="svg_32" x="190.237" y="476.882" fill="#fff" stroke="#000" stroke-width="0" font-family="Helvetica, Arial, sans-serif" font-size="10" font-weight="normal" text-anchor="left" xml:space="preserve">OUT</text><rect id="svg_33" width="117" height="26" x="586.109" y="460.383" fill="#333" stroke="#000" stroke-opacity="null" stroke-width="0"/><rect id="svg_34" width="152" height="125" x="631.596" y="414.133" fill="#333" stroke="#000" stroke-opacity="null" stroke-width="0" rx="6"/><rect id="svg_35" width="75" height="53" x="667.596" y="432.133" fill="#000" fill-opacity="0" stroke="#fff" stroke-width="2" rx="6"/><text id="svg_36" x="674.596" y="451.133" fill="#fff" stroke="#000" stroke-width="0" font-family="'Courier New', Courier, monospace" font-size="16" font-weight="bold" text-anchor="left" xml:space="preserve">$</text><text id="svg_37" x="653.596" y="518.133" fill="#fff" stroke="#000" stroke-width="0" font-family="Helvetica, Arial, sans-serif" font-size="16" font-weight="normal" text-anchor="left" xml:space="preserve">Output in Shell</text><rect id="svg_38" width="125.986" height="44" x="261.58" y="451.133" fill="#f39c12" stroke="#000" stroke-width="0" rx="6"/><text id="svg_39" x="284.58" y="477.133" fill="#fff" stroke="#000" stroke-width="0" font-family="'Courier New', Courier, monospace" font-size="18" font-weight="bold" text-anchor="left" xml:space="preserve">sort -n</text><text id="svg_41" x="242.254" y="476.882" fill="#fff" stroke="#000" stroke-width="0" font-family="Helvetica, Arial, sans-serif" font-size="10" font-weight="normal" text-anchor="left" xml:space="preserve">IN</text><path id="svg_42" fill="#f39c12" stroke="#000" stroke-opacity="null" stroke-width="0" d="m386.805756,460.372406l24,0l19.999969,13.020447l-19.999969,13.020447l-24,0l0,-26.040894z"/><text id="svg_43" x="388.302" y="476.882" fill="#fff" stroke="#000" stroke-width="0" font-family="Helvetica, Arial, sans-serif" font-size="10" font-weight="normal" text-anchor="left" xml:space="preserve">OUT</text><rect id="svg_45" width="125.986" height="44" x="451.643" y="451.133" fill="#9b59b6" stroke="#000" stroke-width="0" rx="6"/><text id="svg_46" x="436.318" y="476.882" fill="#fff" stroke="#000" stroke-width="0" font-family="Helvetica, Arial, sans-serif" font-size="10" font-weight="normal" text-anchor="left" xml:space="preserve">IN</text><path id="svg_47" fill="#9b59b6" stroke="#000" stroke-opacity="null" stroke-width="0" d="m576.868774,460.372406l23.999939,0l19.999878,13.020447l-19.999878,13.020447l-23.999939,0l0,-26.040894z"/><text id="svg_48" x="579.366" y="476.882" fill="#fff" stroke="#000" stroke-width="0" font-family="Helvetica, Arial, sans-serif" font-size="10" font-weight="normal" text-anchor="left" xml:space="preserve">OUT</text><text id="svg_49" x="466.5" y="477.133" fill="#fff" stroke="#000" stroke-width="0" font-family="'Courier New', Courier, monospace" font-size="18" font-weight="bold" text-anchor="left" xml:space="preserve">head -n 1</text><path id="svg_50" fill="#fff" stroke="#000" stroke-width="0" d="m341.411133,252.601318c-3.907471,-3.522247 -8.143738,-6.336105 -11.600037,-6.722321c-0.192017,-0.025604 -0.384033,-0.038422 -0.589478,-0.044434l-22.816406,0c-0.369263,0 -0.72644,0.133331 -0.986938,0.373383c-0.24707,0.240982 -0.397461,0.570831 -0.397461,0.906677l0,53.464569c0,0.335754 0.136963,0.65863 0.397461,0.906433c0.260498,0.240234 0.617676,0.367554 0.986938,0.367554l41.245819,0c0.369263,0 0.713013,-0.127319 0.986938,-0.367554c0.260498,-0.247803 0.397461,-0.563843 0.397461,-0.906433l0,-35.577515c-0.081909,-4.124603 -3.578491,-8.630341 -7.624298,-12.40036zm-1.947021,1.806381c1.810059,1.634659 3.441559,3.484604 4.648712,5.265396c-1.041992,-0.387085 -2.152496,-0.671631 -3.181061,-0.899811c-2.289429,-0.469086 -4.511719,-0.658783 -5.895966,-0.741669c0,-0.272583 0,-0.582794 0,-0.924591c0,-1.79953 -0.123535,-4.372452 -0.794891,-6.640259c-0.014771,-0.02565 -0.014771,-0.044464 -0.028198,-0.064087c1.728119,1.045898 3.593079,2.433594 5.251404,4.00502zm6.801178,44.885422l-38.487762,0l0,-50.905304l21.444092,0l0,0.006836c0.933228,-0.0513 1.741577,0.804077 2.359253,2.755737c0.561279,1.856812 0.698242,4.277588 0.698242,5.956635c0,1.235626 -0.068481,2.059357 -0.068481,2.059357l-0.108765,1.355164l1.481079,0.012848c0,0 3.399719,0.038452 6.73114,0.734863c3.209259,0.640015 5.718903,1.914093 5.951202,3.358185c0,0.127319 0.013428,0.259766 0,0.380249l0,34.285431l0,0z"/><text id="svg_51" x="297.466" y="318.006" fill="#fff" stroke="#000" stroke-opacity="null" stroke-width="0" font-family="'Courier New', Courier, monospace" font-size="14" text-anchor="left" xml:space="preserve">lengths</text><text id="svg_52" x="11.5" y="47.007" fill="#000" stroke="#000" stroke-width="0" font-family="'Courier New', Courier, monospace" font-size="18" font-weight="bold" text-anchor="left" xml:space="preserve" style="cursor:move">$</text><text id="svg_53" x="11.5" y="425.133" fill="#000" stroke="#000" stroke-width="0" font-family="'Courier New', Courier, monospace" font-size="18" font-weight="bold" text-anchor="left" xml:space="preserve" style="cursor:move">$</text><text id="svg_54" x="161.55" y="425.133" fill="#000" stroke="#000" stroke-width="0" font-family="'Courier New', Courier, monospace" font-size="18" font-weight="bold" text-anchor="left" xml:space="preserve" style="cursor:move">|</text><text id="svg_55" x="181.556" y="425.133" fill="#f39c12" stroke="#000" stroke-width="0" font-family="'Courier New', Courier, monospace" font-size="18" font-weight="bold" text-anchor="left" xml:space="preserve" style="cursor:move">sort -n</text><text id="svg_56" x="271.586" y="425.133" fill="#000" stroke="#000" stroke-width="0" font-family="'Courier New', Courier, monospace" font-size="18" font-weight="bold" text-anchor="left" xml:space="preserve" style="cursor:move">|</text><text id="svg_57" x="291.593" y="425.133" fill="#9b59b6" stroke="#000" stroke-width="0" font-family="'Courier New', Courier, monospace" font-size="18" font-weight="bold" text-anchor="left" xml:space="preserve">head -n 1</text><text id="svg_58" x="31.507" y="425.133" fill="#e74c3c" stroke="#000" stroke-width="0" font-family="'Courier New', Courier, monospace" font-size="18" font-weight="bold" text-anchor="left" xml:space="preserve">wc -l *.pdb</text><text id="svg_59" x="11.5" y="425.133" fill="#000" stroke="#000" stroke-width="0" font-family="'Courier New', Courier, monospace" font-size="18" font-weight="bold" text-anchor="left" xml:space="preserve" style="cursor:move">$</text><text id="svg_60" x="161.55" y="425.133" fill="#000" stroke="#000" stroke-width="0" font-family="'Courier New', Courier, monospace" font-size="18" font-weight="bold" text-anchor="left" xml:space="preserve" style="cursor:move">|</text><text id="svg_61" x="181.556" y="425.133" fill="#f39c12" stroke="#000" stroke-width="0" font-family="'Courier New', Courier, monospace" font-size="18" font-weight="bold" text-anchor="left" xml:space="preserve" style="cursor:move">sort -n</text><text id="svg_62" x="271.586" y="425.133" fill="#000" stroke="#000" stroke-width="0" font-family="'Courier New', Courier, monospace" font-size="18" font-weight="bold" text-anchor="left" xml:space="preserve" style="cursor:move">|</text><text id="svg_63" x="291.593" y="425.133" fill="#9b59b6" stroke="#000" stroke-width="0" font-family="'Courier New', Courier, monospace" font-size="18" font-weight="bold" text-anchor="left" xml:space="preserve">head -n 1</text><text id="svg_64" x="31.507" y="223.066" fill="#e74c3c" stroke="#000" stroke-width="0" font-family="'Courier New', Courier, monospace" font-size="18" font-weight="bold" text-anchor="left" xml:space="preserve">wc -l *.pdb</text><text id="svg_65" x="11.5" y="223.066" fill="#000" stroke="#000" stroke-width="0" font-family="'Courier New', Courier, monospace" font-size="18" font-weight="bold" text-anchor="left" xml:space="preserve">$</text><text id="svg_66" x="161.55" y="223.066" fill="#000" stroke="#000" stroke-width="0" font-family="'Courier New', Courier, monospace" font-size="18" font-weight="bold" text-anchor="left" xml:space="preserve" style="cursor:move">&gt;</text><text id="svg_67" x="181.556" y="223.066" fill="#3498db" stroke="#000" stroke-width="0" font-family="'Courier New', Courier, monospace" font-size="18" font-weight="bold" text-anchor="left" xml:space="preserve">lengths</text></g></svg>